<?xml version="1.0" standalone="no"?>
<!DOCTYPE svg PUBLIC "-//W3C//DTD SVG 20010904//EN"
 "http://www.w3.org/TR/2001/REC-SVG-20010904/DTD/svg10.dtd">
<svg version="1.0" xmlns="http://www.w3.org/2000/svg"
 width="2000.000000pt" height="2000.000000pt" viewBox="0 0 2000.000000 2000.000000"
 preserveAspectRatio="xMidYMid meet">
<metadata>
Created by potrace 1.11, written by Peter Selinger 2001-2013
</metadata>
<g transform="translate(0.000000,2000.000000) scale(0.100000,-0.100000)"
fill="#000000" stroke="none">
<path d="M19765 19989 c-27 -5 -72 -11 -100 -15 -62 -8 -67 -9 -195 -28 -167
-25 -169 -26 -213 -31 -23 -3 -53 -7 -67 -10 -14 -3 -90 -14 -170 -25 -80 -11
-154 -22 -165 -24 -11 -2 -45 -7 -75 -11 -30 -4 -64 -9 -74 -11 -11 -2 -56 -8
-100 -14 -88 -12 -127 -18 -166 -25 -14 -2 -45 -7 -70 -10 -25 -3 -72 -10
-105 -15 -33 -5 -78 -12 -100 -15 -22 -3 -69 -10 -105 -15 -36 -5 -83 -12
-105 -15 -22 -3 -67 -10 -100 -15 -33 -5 -80 -12 -105 -15 -25 -3 -52 -7 -60
-9 -8 -3 -40 -7 -71 -11 -31 -3 -65 -7 -75 -9 -11 -2 -55 -9 -99 -16 -44 -6
-91 -13 -105 -15 -14 -2 -47 -7 -75 -10 -27 -3 -72 -10 -100 -15 -27 -5 -68
-11 -90 -14 -22 -3 -69 -9 -105 -15 -36 -6 -87 -13 -115 -17 -27 -3 -57 -7
-65 -9 -22 -4 -88 -14 -135 -20 -23 -3 -50 -7 -61 -9 -12 -2 -45 -7 -75 -11
-30 -3 -76 -10 -104 -15 -27 -5 -70 -12 -95 -14 -25 -3 -54 -7 -65 -10 -11 -2
-49 -7 -85 -11 -36 -4 -67 -8 -70 -10 -3 -2 -29 -6 -59 -10 -30 -4 -62 -8 -71
-10 -9 -2 -41 -6 -70 -10 -29 -4 -62 -9 -74 -11 -11 -2 -36 -6 -56 -9 -19 -2
-84 -12 -145 -21 -60 -8 -125 -18 -145 -20 -19 -2 -75 -11 -125 -19 -49 -7
-115 -16 -145 -20 -30 -3 -62 -8 -70 -10 -8 -3 -33 -7 -55 -10 -22 -2 -58 -7
-80 -11 -22 -3 -51 -7 -65 -9 -32 -4 -110 -16 -131 -20 -9 -2 -40 -6 -69 -10
-29 -4 -62 -8 -73 -11 -11 -2 -57 -8 -101 -14 -142 -19 -151 -21 -176 -25 -14
-3 -41 -7 -60 -10 -19 -3 -114 -16 -210 -30 -247 -36 -242 -35 -270 -39 -49
-8 -125 -19 -140 -21 -8 -1 -39 -5 -69 -9 -30 -4 -63 -10 -75 -12 -11 -2 -38
-6 -61 -9 -45 -6 -112 -16 -135 -20 -8 -1 -40 -6 -70 -10 -30 -4 -62 -9 -71
-10 -9 -2 -40 -6 -69 -10 -29 -4 -62 -9 -74 -11 -12 -2 -41 -6 -66 -10 -25 -3
-70 -9 -100 -15 -30 -5 -77 -11 -105 -14 -27 -3 -75 -10 -105 -15 -48 -8 -211
-32 -307 -46 -18 -2 -50 -6 -70 -9 -21 -3 -63 -10 -93 -15 -30 -5 -77 -12
-105 -15 -27 -3 -77 -10 -110 -15 -54 -9 -80 -12 -165 -25 -14 -2 -47 -7 -75
-11 -27 -3 -59 -8 -70 -10 -11 -3 -40 -7 -65 -9 -25 -3 -56 -8 -70 -10 -14 -2
-45 -7 -70 -10 -25 -4 -58 -9 -75 -11 -33 -6 -45 -8 -124 -19 -30 -3 -61 -8
-70 -10 -26 -4 -92 -14 -141 -20 -25 -3 -70 -10 -100 -15 -60 -10 -58 -10
-275 -40 -82 -12 -163 -24 -180 -26 -16 -3 -43 -7 -58 -9 -53 -8 -112 -16
-172 -25 -33 -5 -78 -12 -100 -15 -22 -3 -53 -7 -70 -10 -16 -3 -48 -7 -70
-10 -22 -3 -55 -8 -73 -11 -17 -3 -49 -7 -69 -10 -20 -2 -48 -6 -62 -9 -14 -2
-91 -14 -171 -25 -80 -11 -156 -22 -170 -24 -14 -3 -43 -7 -65 -11 -22 -3 -53
-7 -70 -10 -16 -3 -48 -7 -70 -10 -55 -8 -163 -24 -202 -30 l-33 -6 0 -3974
c0 -3173 3 -3975 13 -3976 19 -1 228 0 872 6 325 2 903 7 1285 10 382 3 958 7
1280 10 322 3 884 7 1250 10 855 7 1591 13 2515 20 407 3 965 8 1240 10 275 2
869 7 1320 10 451 4 856 7 900 8 l80 2 0 4716 c0 4184 -2 4715 -15 4715 -8 1
-37 -3 -65 -7z"/>
<path d="M8099 18286 c-2 -2 -33 -7 -69 -11 -36 -4 -73 -9 -84 -11 -10 -2 -44
-6 -75 -9 -31 -4 -63 -8 -71 -10 -8 -2 -87 -13 -175 -25 -88 -11 -171 -22
-185 -25 -37 -5 -99 -14 -150 -20 -25 -4 -56 -8 -70 -10 -24 -4 -67 -10 -155
-21 -22 -3 -51 -7 -65 -9 -46 -7 -175 -24 -220 -30 -25 -3 -56 -8 -70 -10 -14
-3 -47 -7 -75 -10 -27 -3 -59 -7 -70 -9 -31 -5 -90 -14 -335 -46 -85 -11 -168
-23 -185 -25 -16 -2 -68 -9 -115 -16 -47 -6 -96 -12 -110 -15 -14 -2 -63 -9
-110 -14 -47 -6 -96 -13 -110 -15 -14 -2 -45 -6 -70 -10 -25 -3 -56 -8 -70
-10 -14 -2 -47 -7 -75 -10 -27 -4 -59 -8 -70 -10 -11 -1 -47 -6 -80 -10 -33
-4 -69 -9 -80 -11 -11 -2 -58 -9 -105 -14 -47 -6 -96 -13 -110 -15 -22 -3
-143 -20 -217 -29 -16 -2 -82 -11 -148 -20 -66 -9 -133 -18 -150 -21 -76 -10
-132 -18 -150 -21 -11 -3 -40 -6 -65 -9 -25 -3 -56 -7 -70 -10 -14 -2 -46 -7
-72 -10 -26 -3 -62 -7 -80 -10 -30 -4 -117 -16 -223 -30 -23 -3 -50 -7 -62 -9
-12 -3 -50 -7 -85 -11 -35 -3 -70 -8 -78 -10 -8 -2 -37 -6 -65 -10 -63 -8
-150 -19 -295 -40 -81 -11 -110 -15 -150 -20 -25 -4 -56 -8 -70 -10 -14 -2
-63 -9 -110 -15 -47 -6 -98 -13 -115 -15 -16 -2 -48 -7 -70 -10 -63 -9 -395
-54 -445 -60 -25 -3 -52 -7 -60 -9 -8 -3 -40 -7 -70 -11 -30 -3 -66 -7 -80 -9
-14 -3 -47 -7 -75 -11 -27 -3 -63 -8 -80 -10 -16 -3 -66 -9 -111 -15 -44 -6
-89 -12 -100 -14 -10 -2 -62 -9 -114 -16 -52 -7 -103 -14 -114 -16 -10 -2 -44
-6 -75 -9 -31 -4 -81 -10 -111 -15 -53 -9 -91 -14 -182 -25 -40 -5 -90 -12
-148 -20 -44 -7 -104 -15 -145 -19 -22 -3 -58 -8 -80 -11 -73 -11 -89 -14
-150 -21 -33 -5 -62 -9 -65 -9 -3 -1 -36 -5 -75 -9 -38 -5 -78 -10 -87 -12 -9
-1 -68 -10 -130 -19 -62 -9 -125 -18 -140 -21 l-27 -5 4 -3357 c2 -1846 4
-3368 4 -3382 l1 -25 167 2 c93 1 636 4 1208 7 572 4 1425 9 1895 11 1180 8
2077 13 3510 21 674 3 1247 7 1275 8 l50 1 -3 3910 c-2 2150 -4 3911 -6 3912
-1 2 -5 1 -7 -1z"/>
<path d="M12 9605 c-3 -5 -6 -1527 -6 -3382 -1 -2990 1 -3374 14 -3377 8 -3
40 -8 70 -11 30 -4 64 -9 75 -11 11 -2 47 -7 80 -10 33 -4 65 -8 70 -9 20 -4
330 -47 425 -59 25 -3 54 -8 65 -10 11 -2 45 -7 75 -10 30 -4 66 -8 80 -11 14
-2 79 -11 145 -20 66 -9 131 -18 145 -20 23 -3 152 -21 223 -31 52 -6 112 -15
182 -25 76 -10 103 -14 180 -24 28 -3 61 -8 75 -10 14 -3 48 -7 75 -10 28 -4
75 -10 105 -15 30 -5 78 -12 105 -15 28 -3 97 -13 155 -21 111 -16 162 -23
207 -28 42 -6 194 -27 228 -32 103 -14 318 -44 360 -49 28 -4 61 -8 75 -11 14
-2 50 -6 80 -10 30 -3 64 -8 74 -10 11 -2 56 -8 100 -14 45 -6 92 -13 106 -15
14 -2 63 -9 110 -15 47 -6 96 -13 110 -15 28 -4 80 -11 155 -21 28 -3 57 -8
65 -9 9 -2 43 -6 75 -10 33 -4 69 -9 80 -11 19 -4 206 -30 285 -39 19 -3 64
-9 100 -14 36 -6 86 -13 111 -16 25 -3 57 -8 70 -10 13 -2 45 -7 71 -10 43 -4
120 -15 218 -29 19 -3 103 -15 185 -26 83 -11 164 -22 180 -25 17 -2 100 -14
185 -25 85 -12 166 -23 180 -25 58 -8 108 -15 150 -20 45 -6 62 -9 135 -19 22
-4 56 -8 75 -11 57 -7 413 -56 440 -60 14 -2 45 -7 70 -10 25 -3 62 -8 82 -11
21 -3 50 -6 65 -8 66 -9 270 -37 293 -41 14 -2 48 -7 75 -10 28 -3 61 -7 75
-10 23 -4 69 -11 137 -19 89 -12 201 -28 223 -31 14 -3 50 -7 80 -10 30 -4 62
-8 70 -10 8 -2 38 -7 65 -10 28 -3 64 -8 80 -10 31 -5 76 -11 143 -20 20 -3
49 -8 65 -11 21 -4 27 -2 27 13 1 24 -1 6123 -2 7071 0 416 -5 735 -10 738 -5
3 -284 7 -621 9 -337 3 -961 7 -1387 10 -426 2 -1162 7 -1635 10 -473 3 -1139
8 -1480 10 -341 2 -1090 7 -1665 11 -575 3 -1101 7 -1168 8 -72 0 -126 -3
-130 -9z"/>
<path d="M9077 9503 c-2 -1 -2 -469 0 -1040 1 -571 4 -2345 8 -3942 3 -1598 7
-2906 8 -2907 3 -4 50 -12 112 -19 28 -4 57 -8 65 -10 8 -2 42 -7 75 -10 33
-4 67 -8 75 -10 8 -2 35 -7 60 -10 25 -3 56 -8 70 -10 14 -3 45 -7 70 -10 25
-3 77 -10 115 -15 39 -6 84 -12 100 -14 41 -5 126 -18 150 -22 11 -2 58 -9
105 -15 90 -12 100 -13 170 -24 25 -3 59 -8 75 -10 17 -3 80 -12 140 -20 61
-9 124 -18 140 -20 63 -9 191 -27 215 -30 14 -2 45 -6 70 -10 25 -3 56 -8 70
-10 14 -2 48 -7 75 -10 28 -3 62 -8 78 -10 74 -13 208 -32 269 -40 21 -2 53
-7 70 -10 18 -3 47 -7 63 -9 48 -5 149 -19 160 -21 11 -2 93 -14 145 -21 31
-4 95 -13 200 -28 121 -18 401 -57 435 -62 22 -3 51 -7 65 -9 14 -3 48 -7 75
-10 28 -3 57 -8 65 -10 8 -2 40 -7 70 -10 30 -4 77 -11 103 -16 26 -5 51 -8
55 -7 7 2 100 -11 237 -32 33 -6 78 -12 100 -15 22 -2 121 -16 220 -30 99 -14
196 -28 215 -31 19 -2 49 -6 65 -9 17 -3 48 -7 70 -10 65 -9 178 -25 205 -29
14 -2 48 -7 75 -11 28 -3 61 -8 75 -10 14 -2 45 -6 70 -9 25 -3 54 -8 65 -10
11 -2 43 -7 70 -10 28 -4 61 -9 75 -11 53 -8 177 -25 220 -30 25 -3 56 -8 70
-10 14 -3 43 -7 65 -10 22 -2 51 -7 65 -9 14 -3 48 -8 75 -11 28 -3 97 -13
155 -21 58 -8 121 -17 140 -19 19 -3 49 -7 65 -10 17 -3 46 -7 65 -9 63 -9
114 -16 145 -21 17 -2 53 -7 80 -11 28 -3 59 -8 70 -10 11 -2 45 -7 75 -10 30
-3 57 -7 60 -9 3 -2 37 -7 75 -10 39 -4 72 -8 75 -10 3 -2 30 -6 60 -10 30 -3
62 -7 70 -10 8 -2 38 -6 65 -10 63 -8 84 -11 225 -31 153 -21 168 -24 215 -30
63 -8 92 -12 137 -19 53 -8 81 -12 133 -19 22 -3 168 -24 325 -46 157 -22 335
-47 396 -55 61 -9 120 -17 131 -19 11 -3 44 -7 74 -11 30 -3 79 -10 109 -15
30 -5 79 -12 109 -15 30 -4 61 -8 70 -10 9 -2 44 -7 76 -11 33 -4 62 -8 65 -9
3 -1 34 -5 70 -10 36 -5 67 -9 70 -10 3 -1 34 -5 70 -9 36 -5 74 -10 85 -12
11 -2 40 -6 65 -9 25 -3 56 -8 70 -10 14 -3 48 -7 75 -11 28 -3 59 -8 70 -10
10 -2 37 -6 60 -9 42 -6 103 -14 145 -20 14 -2 45 -7 70 -10 25 -3 72 -10 105
-15 33 -5 80 -12 105 -15 25 -3 63 -8 85 -12 22 -3 49 -7 60 -8 64 -9 194 -27
215 -31 14 -2 48 -7 75 -10 28 -4 71 -10 98 -14 26 -4 48 -4 48 -1 1 3 2 2118
3 4699 l2 4692 -1330 0 c-1166 1 -4807 6 -8304 13 -623 2 -1134 2 -1135 0z"/>
</g>
</svg>
